<svg width="175" height="25" viewBox="0 0 175 25" fill="none" xmlns="http://www.w3.org/2000/svg">
<g clip-path="url(#clip0_252_17)">
<rect x="15.75" y="0.75" width="23.5" height="23.5" stroke="#3B392C" stroke-width="1.5"/>
<g clip-path="url(#clip1_252_17)">
<path d="M26.0833 10.3753H24.6666M30.3333 10.3753H28.9166M20.4166 12.5003C20.4166 16.4125 23.5878 19.5837 27.5 19.5837C31.4121 19.5837 34.5833 16.4125 34.5833 12.5003C34.5833 8.5882 31.4121 5.41699 27.5 5.41699C23.5878 5.41699 20.4166 8.5882 20.4166 12.5003ZM28.9166 16.7503H26.0833V14.6253C26.0833 14.1529 26.3666 13.2087 27.5 13.2087C28.6333 13.2087 28.9166 14.1529 28.9166 14.6253V16.7503Z" stroke="#3B392C" stroke-width="1.5" stroke-linecap="round" stroke-linejoin="round"/>
</g>
</g>
<g clip-path="url(#clip2_252_17)">
<rect x="55.75" y="0.75" width="23.5" height="23.5" stroke="#3B392C" stroke-width="1.5"/>
<g clip-path="url(#clip3_252_17)">
<path d="M65.625 4.99996V6.40621C66.6716 6.40414 67.7084 6.60926 68.6754 7.00974C69.6424 7.41023 70.5206 7.99816 71.2593 8.73965C72.0003 9.47875 72.5879 10.357 72.9884 11.324C73.3888 12.2909 73.5942 13.3274 73.5928 14.374H74.999C74.999 9.19621 70.8018 4.99902 65.624 4.99902L65.625 4.99996Z" fill="#3B392C"/>
<path d="M65.625 7.8125V9.21875C67.0022 9.21875 68.2969 9.755 69.2709 10.7291C70.245 11.7031 70.7812 12.9978 70.7812 14.375H72.1875C72.1875 12.6345 71.4961 10.9653 70.2654 9.73461C69.0347 8.5039 67.3655 7.8125 65.625 7.8125ZM67.0312 10.625L66.0938 11.5625L62.8125 12.5L60 18.5938L60.3712 18.965L63.7819 15.5544C63.7284 15.355 63.7423 15.1436 63.8212 14.9529C63.9002 14.7623 64.0399 14.603 64.2186 14.4998C64.3974 14.3966 64.6051 14.3552 64.8098 14.3822C65.0144 14.4091 65.2044 14.5028 65.3503 14.6487C65.4963 14.7947 65.59 14.9847 65.6169 15.1893C65.6438 15.3939 65.6025 15.6017 65.4993 15.7804C65.3961 15.9592 65.2368 16.0988 65.0461 16.1778C64.8554 16.2568 64.644 16.2706 64.4447 16.2172L61.0341 19.6278L61.4053 19.9991L67.4991 17.1866L68.4366 13.9053L69.3741 12.9678L67.0303 10.6241L67.0312 10.625Z" fill="#3B392C"/>
</g>
</g>
<g clip-path="url(#clip4_252_17)">
<rect x="95.75" y="0.75" width="23.5" height="23.5" stroke="#3B392C" stroke-width="1.5"/>
<path d="M105.375 7.54199C106.126 7.54199 106.847 7.8405 107.379 8.37186C107.91 8.90321 108.208 9.62388 108.208 10.3753C108.208 11.1268 107.91 11.8474 107.379 12.3788C106.847 12.9101 106.126 13.2087 105.375 13.2087C104.624 13.2087 103.903 12.9101 103.372 12.3788C102.84 11.8474 102.542 11.1268 102.542 10.3753C102.542 9.62388 102.84 8.90321 103.372 8.37186C103.903 7.8405 104.624 7.54199 105.375 7.54199ZM105.375 14.6253C107.266 14.6253 111.042 15.5745 111.042 17.4587V18.8753H99.7084V17.4587C99.7084 15.5745 103.484 14.6253 105.375 14.6253ZM110.872 7.79699C112.303 9.35533 112.303 11.5157 110.872 12.9466L109.682 11.7495C110.277 10.9137 110.277 9.82991 109.682 8.99408L110.872 7.79699ZM113.216 5.41699C116 8.28574 115.979 12.5782 113.216 15.3337L112.062 14.1791C114.024 11.9266 114.024 8.71074 112.062 6.57158L113.216 5.41699Z" fill="#3B392C"/>
</g>
<g clip-path="url(#clip5_252_17)">
<rect x="135.75" y="0.75" width="23.5" height="23.5" stroke="#3B392C" stroke-width="1.5"/>
<mask id="mask0_252_17" style="mask-type:luminance" maskUnits="userSpaceOnUse" x="139" y="5" width="17" height="15">
<path d="M150.687 17.4587H146.792V14.6253H151.75V11.792H154.583V17.4587H152.812L151.75 18.5212L150.687 17.4587Z" stroke="white" stroke-width="1.25" stroke-linecap="round" stroke-linejoin="round"/>
<path d="M140.417 6.125H151.75V14.625H145.021L143.604 16.0417L142.187 14.625H140.417V6.125Z" fill="white" stroke="white" stroke-width="1.25" stroke-linecap="round" stroke-linejoin="round"/>
<path d="M143.25 11.7913H145.375M143.25 8.95801H147.5" stroke="black" stroke-width="1.25" stroke-linecap="round"/>
</mask>
<g mask="url(#mask0_252_17)">
<path d="M139 4H156V21H139V4Z" fill="#3B392C"/>
</g>
</g>
<defs>
<clipPath id="clip0_252_17">
<rect width="25" height="25" fill="white" transform="translate(15)"/>
</clipPath>
<clipPath id="clip1_252_17">
<rect width="17" height="17" fill="white" transform="translate(19 4)"/>
</clipPath>
<clipPath id="clip2_252_17">
<rect width="25" height="25" fill="white" transform="translate(55)"/>
</clipPath>
<clipPath id="clip3_252_17">
<rect width="15" height="15" fill="white" transform="translate(60 5)"/>
</clipPath>
<clipPath id="clip4_252_17">
<rect width="25" height="25" fill="white" transform="translate(95)"/>
</clipPath>
<clipPath id="clip5_252_17">
<rect width="25" height="25" fill="white" transform="translate(135)"/>
</clipPath>
</defs>
</svg>
