<svg width="35" height="35" viewBox="0 0 35 35" fill="none" xmlns="http://www.w3.org/2000/svg">
<path d="M29.8412 8.61792C30.0783 8.84076 30.3041 9.07201 30.5291 9.30768C30.6025 9.38277 30.6758 9.45786 30.7514 9.53523C32.4664 11.385 33.0282 14.0076 32.9989 16.4744C32.9584 17.9124 32.5019 19.3132 31.7045 20.4984C31.5086 20.2986 31.5086 20.2986 31.3923 19.9863C30.9699 18.9653 30.137 18.4955 29.1762 18.0817C27.2814 17.3673 24.8467 17.3699 22.987 18.2003C22.6937 18.3384 22.4371 18.4711 22.1789 18.6687C22.0075 18.7998 22.0564 18.7499 21.8605 18.8998C21.8116 18.9497 21.7863 18.9816 21.7136 19.0496C21.6409 19.1176 21.6646 19.131 21.5912 19.2057C21.0007 19.8063 20.8873 20.467 20.8749 21.2915C20.8833 22.2246 21.1104 22.8655 21.7197 23.5709C23.0845 24.8405 25.1472 25.0254 26.905 24.9947C26.905 25.0606 26.905 25.1266 26.905 25.1945C25.2639 26.2331 23.4547 26.9995 21.6157 27.5925C21.5393 27.6172 21.463 27.6419 21.3843 27.6673C16.8635 29.1047 11.2197 29.8196 6.84472 27.5008C6.17253 27.128 5.54016 26.7093 4.96415 26.1937C4.89206 26.1295 4.81996 26.0654 4.74568 25.9993C3.14943 24.4803 2.12153 22.0697 2.01367 19.8524C1.97908 18.7011 1.98716 17.6111 2.3195 16.5017C2.35056 16.397 2.38162 16.2923 2.41363 16.1844C2.86348 14.8517 3.70028 13.5116 4.6703 12.505C4.73495 12.505 4.75062 12.4051 4.81723 12.4051C4.84955 12.3062 4.93085 12.3072 4.96415 12.2053C5.0288 12.2053 5.04447 12.1054 5.11108 12.1054C5.1434 12.0065 5.2247 12.0074 5.258 11.9055C8.6164 8.6973 13.4406 7.04431 17.8936 6.31017C17.9707 6.29719 18.0478 6.28421 18.1272 6.27084C21.9071 5.66751 26.8208 5.91866 29.8412 8.61792ZM8.31397 18.9653C7.70785 19.6404 7.43917 20.3225 7.45576 21.2353C7.45683 21.3189 7.45791 21.4024 7.45901 21.4885C7.48979 22.3847 7.76652 22.9565 8.34955 23.6208C9.65684 24.8616 11.6552 25.1443 13.378 25.0876C14.9665 25.0046 16.7753 24.717 17.9915 23.5958C17.7479 23.3231 17.4759 23.1373 17.1712 22.9401C17.0795 22.8802 16.9878 22.8203 16.8934 22.7586C16.6403 22.6086 16.4112 22.4818 16.1305 22.3968C15.9965 22.4857 15.8633 22.5763 15.7356 22.6743C14.5216 23.4434 12.8691 23.4051 11.5268 23.0963C11.1886 22.9847 11.2627 23.104 10.9423 22.9474C10.8712 22.9141 10.4051 22.6301 10.3319 22.5959C10.1008 22.466 10.0528 22.3456 9.95961 22.0971C9.80475 21.543 9.75157 20.9551 10.0025 20.4235C10.3477 19.8871 10.9272 19.6698 11.5023 19.4743C13.165 19.127 14.8605 19.3015 16.3264 20.1987C16.8759 19.836 17.4254 19.4733 17.9915 19.0996C17.1757 18.0593 15.7979 17.7569 14.5438 17.6095C12.4765 17.3827 9.94237 17.4375 8.31397 18.9653Z" fill="#555555"/>
<path d="M26.2561 19.2682C26.3371 19.2686 26.4182 19.269 26.5018 19.2694C27.5123 19.2884 28.3407 19.4799 29.0844 20.2174C29.3493 20.6517 29.5063 21.1012 29.4115 21.6158C29.2161 22.192 28.938 22.6206 28.4048 22.9152C27.2269 23.4558 25.7009 23.4983 24.4753 23.0873C23.8982 22.8432 23.5483 22.4977 23.1829 21.9972C23.0123 21.4753 23.0163 20.9932 23.2196 20.4859C23.5217 19.9327 24.0686 19.6164 24.653 19.4397C25.1894 19.3054 25.7049 19.2643 26.2561 19.2682Z" fill="#555555"/>
</svg>
