<svg width="35" height="35" viewBox="0 0 35 35" fill="none" xmlns="http://www.w3.org/2000/svg">
<path d="M26.8904 8.88448C25.1724 8.08365 23.3124 7.5024 21.3749 7.16656C21.358 7.16602 21.3411 7.16921 21.3254 7.1759C21.3098 7.1826 21.2959 7.19264 21.2845 7.20531C21.052 7.63156 20.7808 8.18698 20.5999 8.61323C18.5449 8.30323 16.455 8.30323 14.3999 8.61323C14.2191 8.17406 13.9479 7.63156 13.7024 7.20531C13.6895 7.17948 13.6508 7.16656 13.612 7.16656C11.6745 7.5024 9.82745 8.08365 8.09661 8.88448C8.0837 8.88448 8.07078 8.8974 8.05786 8.91031C4.54453 14.1674 3.57578 19.2824 4.0537 24.3457C4.0537 24.3716 4.06661 24.3974 4.09245 24.4103C6.41745 26.1153 8.65203 27.1486 10.8608 27.8332C10.8995 27.8461 10.9383 27.8332 10.9512 27.8074C11.4679 27.097 11.9329 26.3478 12.3333 25.5599C12.3591 25.5082 12.3333 25.4566 12.2816 25.4436C11.5454 25.1595 10.8479 24.8236 10.1633 24.4361C10.1116 24.4103 10.1116 24.3328 10.1504 24.2941C10.2924 24.1907 10.4345 24.0745 10.5766 23.9711C10.6024 23.9453 10.6412 23.9453 10.667 23.9582C15.1104 25.9861 19.9024 25.9861 24.2941 23.9582C24.3199 23.9453 24.3587 23.9453 24.3845 23.9711C24.5266 24.0874 24.6687 24.1907 24.8108 24.307C24.8624 24.3457 24.8624 24.4232 24.7979 24.4491C24.1262 24.8495 23.4158 25.1724 22.6795 25.4566C22.6279 25.4695 22.6149 25.5341 22.6279 25.5728C23.0412 26.3607 23.5062 27.1099 24.0099 27.8203C24.0487 27.8332 24.0874 27.8461 24.1262 27.8332C26.3479 27.1486 28.5824 26.1153 30.9074 24.4103C30.9333 24.3974 30.9462 24.3716 30.9462 24.3457C31.5145 18.4945 30.0033 13.4182 26.942 8.91031C26.9291 8.8974 26.9162 8.88448 26.8904 8.88448ZM13.0049 21.2586C11.6745 21.2586 10.5637 20.0316 10.5637 18.5203C10.5637 17.0091 11.6487 15.782 13.0049 15.782C14.3741 15.782 15.4591 17.022 15.4462 18.5203C15.4462 20.0316 14.3612 21.2586 13.0049 21.2586ZM22.0079 21.2586C20.6774 21.2586 19.5666 20.0316 19.5666 18.5203C19.5666 17.0091 20.6516 15.782 22.0079 15.782C23.377 15.782 24.462 17.022 24.4491 18.5203C24.4491 20.0316 23.377 21.2586 22.0079 21.2586Z" fill="#555555"/>
</svg>
