<svg width="35" height="35" viewBox="0 0 35 35" fill="none" xmlns="http://www.w3.org/2000/svg">
<path d="M29.4762 20.0763C29.1011 21.9653 26.2073 24.0418 22.8179 24.4437C21.0629 24.6447 19.3347 24.8456 17.4993 24.7652C14.485 24.6179 12.1406 24.0418 12.1406 24.0418V24.8724C12.5693 27.8465 15.1147 28.0207 17.5395 28.1145C19.9778 28.1815 22.1481 27.4982 22.1481 27.4982L22.2553 29.7087C22.2553 29.7087 20.5404 30.6197 17.4993 30.7939C15.8247 30.8876 13.7348 30.7537 11.31 30.124C6.05836 28.7173 5.14737 23.104 5.0134 17.3969L5 12.8018C5 6.98752 8.79133 5.28611 8.79133 5.28611C10.7339 4.40191 14.0295 4 17.4592 4H17.5395C20.9691 4 24.2648 4.40191 26.2073 5.28611C26.2073 5.28611 29.9987 6.98752 29.9987 12.8018C29.9987 12.8018 30.0523 17.1022 29.4762 20.0763ZM25.5375 13.2573C25.5375 11.8104 25.1356 10.6985 24.3988 9.82767C23.6485 8.98366 22.6572 8.54156 21.4112 8.54156C19.9912 8.54156 18.906 9.09083 18.1692 10.1894L17.4993 11.3683L16.8295 10.1894C16.0793 9.09083 15.0075 8.54156 13.574 8.54156C12.3415 8.54156 11.3501 8.98366 10.5865 9.82767C9.84969 10.6985 9.46118 11.8104 9.46118 13.2573V20.3041H12.2745V13.4582C12.2745 12.0382 12.8774 11.2879 14.0965 11.2879C15.4362 11.2879 16.1061 12.1587 16.1061 13.8735V17.6113H18.8792V13.8735C18.8792 12.1587 19.5491 11.2879 20.9022 11.2879C22.1079 11.2879 22.7107 12.0382 22.7107 13.4582V20.3041H25.5375V13.2573Z" fill="#F47B32"/>
</svg>
